<svg width="16" height="17" viewBox="0 0 16 17" fill="none" xmlns="http://www.w3.org/2000/svg">
<path d="M13.9 0.784058H1.1C0.22 0.784058 -0.5 1.50459 -0.5 2.38406V15.1841C-0.5 16.063 0.22 16.7841 1.1 16.7841H13.9C14.78 16.7841 15.5 16.063 15.5 15.1841V2.38406C15.5 1.50459 14.78 0.784058 13.9 0.784058ZM3.81787 14.8651H1.36667V12.6849H3.81787V14.8651ZM3.81787 11.9537H1.36667V9.77446H3.81787V11.9537ZM3.63333 3.20912C3.2584 3.20912 2.9544 2.90566 2.9544 2.53019C2.9544 2.15472 3.2584 1.85072 3.63333 1.85072C4.00827 1.85072 4.31227 2.15419 4.31227 2.52966C4.31227 2.90512 4.00827 3.20912 3.63333 3.20912ZM7.0888 14.8651H4.63813V12.6849H7.0888V14.8651ZM7.0888 11.9537H4.63813V9.77446H7.0888V11.9537ZM7.0888 9.04432H4.63813V6.86512H7.0888V9.04432ZM6.82107 2.52966C6.82107 2.15419 7.12507 1.85072 7.5 1.85072C7.87493 1.85072 8.17893 2.15419 8.17893 2.52966C8.17893 2.90512 7.87493 3.20859 7.5 3.20859C7.12507 3.20859 6.82107 2.90566 6.82107 2.52966ZM10.3619 11.9537H7.91067V9.77446H10.3624V11.9537H10.3619ZM10.3619 9.04432H7.91067V6.86512H10.3624V9.04432H10.3619ZM10.6877 2.52966C10.6877 2.15419 10.9917 1.85072 11.3667 1.85072C11.7416 1.85072 12.0456 2.15419 12.0456 2.52966C12.0456 2.90512 11.7416 3.20859 11.3667 3.20859C10.9917 3.20859 10.6877 2.90566 10.6877 2.52966ZM13.6333 11.9537H11.1821V9.77446H13.6333V11.9537ZM13.6333 9.04432H11.1821V6.86512H13.6333V9.04432Z" fill="#FF7E21"/>
</svg>
