<svg width="13" height="17" viewBox="0 0 13 17" fill="none" xmlns="http://www.w3.org/2000/svg">
<path d="M3.47602 16.5H6.91517C7.87487 16.5 8.76289 15.9427 9.2326 15.0403L12.2075 9.32676L12.0396 9.18929C12.0365 9.18655 12.0333 9.18381 12.0303 9.18107C11.7718 8.93792 11.4239 8.81306 11.0699 8.83663C10.7083 8.86418 10.3745 9.04085 10.1482 9.3243L9.29003 10.369C9.22424 10.449 9.11514 10.4792 9.01755 10.4442C8.91983 10.4093 8.85472 10.3169 8.85459 10.2131L8.84965 3.02605C8.84924 2.53619 8.48438 2.13775 8.03619 2.13775C7.59787 2.13775 7.23973 2.51769 7.22314 2.99192C7.22314 3.7178 7.22273 4.50796 7.2226 5.26001C7.22232 6.96095 7.22205 8.42901 7.2226 8.57142C7.22287 8.63638 7.1971 8.69875 7.15119 8.74466C7.10513 8.79044 7.04277 8.81607 6.9778 8.8158H6.97698C6.91215 8.81635 6.84993 8.79099 6.80374 8.74548C6.75768 8.69998 6.73164 8.63789 6.73137 8.5732C6.73082 8.42983 6.73109 6.96259 6.73137 5.26084C6.73137 4.52673 6.73164 3.7559 6.73178 3.04428C6.73137 3.03852 6.73109 3.03318 6.73109 3.02742C6.73109 3.01344 6.73137 3.00001 6.73178 2.98603C6.73178 2.38858 6.73178 1.83677 6.73178 1.38501C6.73205 0.895293 6.36706 0.500008 5.91859 0.500008H5.89365C5.44518 0.500008 5.07306 0.89214 5.07306 1.38227V8.5743C5.07306 8.70985 4.963 8.81991 4.82745 8.81991C4.69176 8.81991 4.58183 8.70985 4.58183 8.5743V2.3121C4.58183 1.82196 4.22451 1.42325 3.77605 1.42325C3.32498 1.42325 2.9678 1.82196 2.9678 2.3121V8.5743C2.9678 8.70985 2.85774 8.81991 2.72218 8.81991C2.58649 8.81991 2.47657 8.70985 2.47657 8.5743V4.88296C2.47657 4.39269 2.10363 4.00878 1.65502 4.00878H1.63159C1.18422 4.00878 0.819223 4.39735 0.818127 4.88597C0.813467 6.90311 0.816345 10.4594 0.81936 13.6428C0.820731 15.2201 2.01262 16.5 3.47602 16.5Z" fill="black"/>
</svg>
