<svg width="25" height="24" viewBox="0 0 25 24" fill="none" xmlns="http://www.w3.org/2000/svg">
<g clip-path="url(#clip0)">
<path d="M23.4539 14.63L21.2479 12.905C21.2759 12.639 21.2999 12.328 21.2999 11.999C21.2999 11.67 21.2769 11.359 21.2479 11.093L23.4559 9.36703C23.8659 9.04303 23.9779 8.46802 23.7169 7.98905L21.4229 4.02C21.1779 3.57202 20.6409 3.342 20.0959 3.543L17.4929 4.58798C16.9939 4.22798 16.4709 3.924 15.9299 3.681L15.5339 0.920016C15.4689 0.396 15.0129 0 14.4739 0H9.87393C9.33491 0 8.87994 0.396 8.81591 0.912L8.41893 3.68302C7.89491 3.91903 7.37994 4.21903 6.85893 4.59L4.24893 3.54202C3.75988 3.35302 3.17488 3.56498 2.93188 4.011L0.634911 7.98502C0.363927 8.44303 0.475911 9.03802 0.894927 9.37003L3.10091 11.095C3.0659 11.432 3.04893 11.725 3.04893 12C3.04893 12.2751 3.06594 12.568 3.10091 12.906L0.892911 14.632C0.482896 14.957 0.371896 15.532 0.632896 16.01L2.92691 19.979C3.17193 20.426 3.70391 20.658 4.2539 20.456L6.85691 19.411C7.35491 19.77 7.8779 20.074 8.41893 20.318L8.81493 23.078C8.8799 23.604 9.33491 24 9.87491 24H14.4749C15.0139 24 15.4699 23.604 15.5339 23.088L15.9309 20.318C16.4549 20.081 16.9689 19.782 17.4909 19.41L20.1009 20.458C20.2269 20.507 20.3579 20.532 20.4929 20.532C20.8809 20.532 21.2379 20.32 21.4179 19.99L23.7219 16C23.9779 15.532 23.8659 14.957 23.4539 14.63ZM12.1739 16C9.96791 16 8.17391 14.206 8.17391 12C8.17391 9.79402 9.96791 8.00002 12.1739 8.00002C14.3799 8.00002 16.1739 9.79402 16.1739 12C16.1739 14.206 14.3799 16 12.1739 16Z" fill="black"/>
</g>
<defs>
<clipPath id="clip0">
<rect width="24" height="24" fill="white" transform="translate(0.172974)"/>
</clipPath>
</defs>
</svg>
